<?xml version="1.0" standalone="no"?>
<!DOCTYPE svg PUBLIC "-//W3C//DTD SVG 20010904//EN"
 "http://www.w3.org/TR/2001/REC-SVG-20010904/DTD/svg10.dtd">
<svg version="1.0" xmlns="http://www.w3.org/2000/svg"
 width="800.000000pt" height="800.000000pt" viewBox="0 0 800.000000 800.000000"
 preserveAspectRatio="xMidYMid meet">
<metadata>
Created by potrace 1.11, written by Peter Selinger 2001-2013
</metadata>
<g transform="translate(0.000000,800.000000) scale(0.100000,-0.100000)"
fill="#000000" stroke="none">
<path d="M3469 7455 c-2 -1 -65 -6 -139 -9 -74 -4 -157 -8 -185 -11 -190 -16
-218 -18 -315 -29 -25 -3 -67 -8 -95 -11 -27 -3 -61 -8 -75 -10 -22 -4 -71
-11 -135 -20 -88 -12 -293 -53 -400 -80 -421 -108 -644 -236 -731 -420 -28
-58 -75 -193 -89 -255 -18 -81 -55 -263 -59 -295 -4 -23 -9 -52 -11 -65 -3
-14 -7 -47 -10 -75 -3 -27 -7 -57 -10 -65 -2 -8 -7 -42 -10 -75 -4 -33 -8 -71
-10 -85 -2 -14 -7 -59 -10 -100 -4 -41 -9 -78 -11 -81 -2 -4 -21 -10 -41 -14
-53 -9 -134 -58 -173 -103 -18 -20 -44 -62 -59 -92 l-26 -55 -3 -402 c-3 -437
-1 -456 53 -549 26 -44 88 -100 141 -127 l31 -16 -5 -148 c-8 -236 -7 -1424 1
-1698 9 -301 20 -553 32 -715 2 -30 6 -98 10 -150 13 -214 44 -297 134 -352
34 -22 48 -23 221 -25 102 -1 188 -2 191 -2 4 -1 6 -117 7 -258 0 -287 4 -309
73 -387 190 -217 607 -181 726 62 l28 57 5 264 5 264 1543 1 c848 1 1543 -1
1543 -4 1 -3 2 -120 3 -261 l2 -256 28 -56 c82 -169 304 -253 520 -197 44 11
87 27 96 35 9 8 22 15 28 15 23 0 118 107 139 157 19 47 21 70 22 304 1 139 4
256 7 260 2 4 14 6 25 4 35 -7 171 -7 223 0 85 11 152 54 177 114 14 34 20
565 23 1844 l2 1129 42 18 c57 26 129 100 160 168 l27 57 0 425 0 425 -33 67
c-48 97 -128 160 -239 188 -34 8 -43 16 -44 33 -1 12 -2 33 -4 47 -2 14 -5 45
-8 70 -10 85 -18 145 -27 205 -5 33 -12 78 -15 100 -19 126 -65 327 -101 438
-75 238 -151 328 -364 436 -125 64 -400 158 -540 185 -14 3 -79 16 -145 31
-66 14 -134 27 -150 30 -17 2 -42 6 -55 9 -14 3 -43 8 -65 11 -22 3 -53 7 -70
10 -16 3 -46 7 -65 9 -19 3 -57 7 -85 11 -27 3 -64 8 -81 10 -29 4 -76 9 -189
20 -79 8 -203 17 -395 31 -78 6 -986 14 -991 9z m2072 -677 c0 -53 0 -279 0
-370 l-1 -67 -1562 -1 -1563 0 0 240 0 240 1562 0 1563 0 1 -42z m547 -1823
l-3 -1120 -2103 0 c-1157 0 -2106 4 -2109 8 -4 6 -7 2198 -4 2227 1 3 951 5
2111 5 l2110 0 -2 -1120z m-3486 -2213 c238 -84 358 -340 273 -582 -33 -94
-117 -191 -210 -242 -98 -53 -244 -62 -354 -21 -309 114 -394 508 -161 739
119 118 298 160 452 106z m3038 8 c153 -42 274 -166 315 -324 17 -63 13 -185
-8 -248 -56 -177 -220 -301 -403 -307 -86 -3 -151 12 -226 51 -321 168 -310
643 18 800 98 46 203 56 304 28z"/>
</g>
</svg>
